<?xml version="1.0" encoding="UTF-8" standalone="no"?>
<!-- Created with Inkscape (http://www.inkscape.org/) -->

<svg
   xmlns:dc="http://purl.org/dc/elements/1.1/"
   xmlns:cc="http://creativecommons.org/ns#"
   xmlns:rdf="http://www.w3.org/1999/02/22-rdf-syntax-ns#"
   xmlns:svg="http://www.w3.org/2000/svg"
   xmlns="http://www.w3.org/2000/svg"
   xmlns:sodipodi="http://sodipodi.sourceforge.net/DTD/sodipodi-0.dtd"
   xmlns:inkscape="http://www.inkscape.org/namespaces/inkscape"
   width="744.09448819"
   height="1052.3622047"
   id="svg2"
   version="1.1"
   inkscape:version="0.48.4 r9939"
   sodipodi:docname="Master.svg">
  <defs
     id="defs4" />
  <sodipodi:namedview
     id="base"
     pagecolor="#ffffff"
     bordercolor="#666666"
     borderopacity="1.0"
     inkscape:pageopacity="0.0"
     inkscape:pageshadow="2"
     inkscape:zoom="2.8"
     inkscape:cx="324.60263"
     inkscape:cy="711.55313"
     inkscape:document-units="px"
     inkscape:current-layer="layer1"
     showgrid="false"
     inkscape:window-width="929"
     inkscape:window-height="607"
     inkscape:window-x="26"
     inkscape:window-y="26"
     inkscape:window-maximized="0" />
  <metadata
     id="metadata7">
    <rdf:RDF>
      <cc:Work
         rdf:about="">
        <dc:format>image/svg+xml</dc:format>
        <dc:type
           rdf:resource="http://purl.org/dc/dcmitype/StillImage" />
        <dc:title></dc:title>
      </cc:Work>
    </rdf:RDF>
  </metadata>
  <g
     inkscape:label="Layer 1"
     inkscape:groupmode="layer"
     id="layer1">
    <rect
       style="fill:#7e1a20;fill-opacity:1;stroke:none"
       id="rect2985"
       width="394.28571"
       height="497.14285"
       x="211.42857"
       y="158.07646" />
    <path
       id="path3763"
       style="font-size:medium;font-style:normal;font-variant:normal;font-weight:normal;font-stretch:normal;text-indent:0;text-align:start;text-decoration:none;line-height:normal;letter-spacing:normal;word-spacing:normal;text-transform:none;direction:ltr;block-progression:tb;writing-mode:lr-tb;text-anchor:start;baseline-shift:baseline;color:#000000;fill:#ffffff;fill-opacity:1;stroke:none;stroke-width:3.24440718;marker:none;visibility:visible;display:inline;overflow:visible;enable-background:accumulate;font-family:Sans;-inkscape-font-specification:Sans"
       d="m 329.65625,310.46429 c -16.85529,0 -31.24339,8.448 -35.78125,20.53125 a 1.6223658,1.6223658 0 0 0 0,1.15625 c 4.55416,12.06506 18.94334,20.5 35.78125,20.5 16.83489,0 31.19369,-8.4417 35.75,-20.5 a 1.6223658,1.6223658 0 0 0 0,-1.15625 c -4.54038,-12.07608 -18.89804,-20.53125 -35.75,-20.53125 z m 0,3.25 c 15.46436,0 28.26754,7.75604 32.4375,17.875 -4.19377,10.09022 -17.0011,17.8125 -32.4375,17.8125 -15.44003,0 -28.27734,-7.72201 -32.46875,-17.8125 4.16723,-10.11953 17.00037,-17.875 32.46875,-17.875 z m -0.34375,-1.875 c -3.82506,0 -7.51524,0.44194 -10.96875,1.28125 -4.63142,4.23617 -7.625,10.9455 -7.625,18.53125 0,7.02691 2.56499,13.30552 6.625,17.5625 3.73713,1.00004 7.77612,1.53125 11.96875,1.53125 4.73534,0 9.24432,-0.70692 13.375,-1.96875 3.8285,-4.24526 6.25,-10.33129 6.25,-17.125 0,-7.35393 -2.82708,-13.90291 -7.21875,-18.15625 -3.86533,-1.08401 -8.03562,-1.65625 -12.40625,-1.65625 z m 3.46875,2.4375 1.96875,0 -0.375,1.78125 c 1.77081,0.44274 3.17185,1.24091 4.1875,2.40625 1.0156,1.16539 1.62237,2.69794 1.84375,4.625 l -3.375,0.1875 c -0.18231,-1.15883 -0.52346,-2.09112 -1.03125,-2.78125 -0.50783,-0.69008 -1.2422,-1.19268 -2.21875,-1.53125 l -2.0625,9.8125 c 2.63019,1.08074 4.42316,2.25522 5.40625,3.53125 0.98305,1.27605 1.49998,2.71876 1.5,4.28125 -2e-5,1.48438 -0.46486,2.95313 -1.34375,4.4375 -0.87893,1.48438 -2.02346,2.59115 -3.46875,3.28125 -1.44533,0.6901 -3.11199,1.03125 -5,1.03125 -0.13022,0 -0.32814,-0.0182 -0.5625,-0.0312 l -0.6875,3.34375 -1.9375,0 0.75,-3.5625 c -1.90105,-0.39062 -3.48698,-1.36979 -4.75,-2.90625 -1.26302,-1.53645 -1.94531,-3.42968 -2.0625,-5.65625 l 3.53125,-0.1875 c 0.11718,1.56251 0.52213,2.80469 1.21875,3.78125 0.69661,0.97657 1.58853,1.65365 2.65625,2.03125 l 2.28125,-10.7813 c -1.53647,-0.66405 -2.65365,-1.28384 -3.34375,-1.84375 -0.96355,-0.76821 -1.71094,-1.67707 -2.21875,-2.71875 -0.50782,-1.04165 -0.75001,-2.09373 -0.75,-3.1875 -10e-6,-2.05727 0.82031,-3.88669 2.5,-5.46875 1.67968,-1.582 3.76301,-2.37497 6.25,-2.375 0.0781,3e-5 0.33853,0.0183 0.78125,0.0312 l 0.3125,-1.53125 z m -0.875,4.34375 c -1.00262,-0.039 -1.95314,0.13414 -2.8125,0.53125 -0.85939,0.39716 -1.50001,0.99482 -1.96875,1.75 -0.46876,0.75523 -0.71876,1.57033 -0.71875,2.46875 -10e-6,0.9896 0.23046,1.84637 0.71875,2.5625 0.48827,0.71616 1.4453,1.39845 2.8125,2.0625 l 1.96875,-9.375 z m -0.90625,13.5 -2.15625,10.375 c 1.7578,0.0651 3.23957,-0.44922 4.4375,-1.5625 1.1979,-1.11328 1.78123,-2.43229 1.78125,-3.96875 -2e-5,-1.01562 -0.26564,-1.91405 -0.8125,-2.65625 -0.54689,-0.74218 -1.63543,-1.47134 -3.25,-2.1875 z"
       inkscape:connector-curvature="0"
       inkscape:export-filename="C:\Projects\BillTender_Parse\Marketing\Master.png"
       inkscape:export-xdpi="480"
       inkscape:export-ydpi="480" />
  </g>
</svg>
